<svg width="354" height="412" viewBox="0 0 354 412" fill="none" xmlns="http://www.w3.org/2000/svg">
<path d="M349.406 93.048C348.913 88.1338 344.534 84.5066 339.662 85.0039L337.893 85.1794C333.688 85.6182 330.469 88.9528 329.947 92.9895C318.463 39.8694 283.402 0 176.277 0C70.5148 0 34.961 38.8456 23.0421 90.9711C21.8821 87.8705 19.0981 85.5304 15.6181 85.1794L13.8491 85.0039C8.97716 84.5066 4.59819 88.1338 4.13419 93.048L0.0452158 134.029C-0.447781 138.943 3.1482 143.36 8.02016 143.857L9.78915 144.033C12.7761 144.325 15.5891 143.097 17.4161 140.932C17.0101 152.75 17.0101 164.801 17.0101 176.853C17.0101 265.571 152.7 411.74 176.277 411.74C199.854 411.74 335.544 265.571 335.544 176.853C335.544 164.275 335.544 151.755 335.109 139.47C336.791 142.482 340.126 144.413 343.751 144.033L345.52 143.857C350.363 143.36 353.959 138.943 353.466 134.029L349.406 93.048ZM121.003 37.8218C121.003 32.381 125.411 27.9349 130.805 27.9349H222.503C227.897 27.9349 232.305 32.381 232.305 37.8218V39.7523C232.305 45.1931 227.897 49.6392 222.503 49.6392H130.805C125.411 49.6392 121.003 45.1931 121.003 39.7523V37.8218ZM59.2048 142.161L67.8758 83.3951C68.7168 77.6034 73.6467 73.3327 79.4467 73.3327H274.064C279.864 73.3327 284.765 77.6034 285.635 83.3951L294.306 142.161C295.35 149.298 289.869 155.704 282.735 155.704H70.7758C63.6128 155.704 58.1608 149.298 59.2048 142.161ZM72.8927 235.238C61.2348 235.238 51.8099 225.731 51.8099 213.972C51.8099 202.213 61.2348 192.707 72.8927 192.707C84.5507 192.707 93.9756 202.243 93.9756 213.972C93.9756 225.702 84.5217 235.238 72.8927 235.238ZM235.263 231.845C234.074 233.044 232.421 233.805 230.594 233.805H121.67C118.016 233.805 115.087 230.821 115.087 227.135C115.087 225.322 115.812 223.654 117.001 222.455C118.19 221.227 119.843 220.495 121.67 220.495H230.594C234.248 220.495 237.177 223.479 237.177 227.135C237.177 228.978 236.452 230.646 235.263 231.845ZM235.263 205.753C234.074 206.952 232.421 207.683 230.594 207.683H121.67C118.016 207.683 115.087 204.729 115.087 201.043C115.087 199.2 115.812 197.533 117.001 196.334C118.19 195.135 119.843 194.403 121.67 194.403H230.594C234.248 194.403 237.177 197.358 237.177 201.043C237.177 202.886 236.452 204.553 235.263 205.753ZM279.661 235.238C268.003 235.238 258.579 225.731 258.579 213.972C258.579 202.213 268.003 192.707 279.661 192.707C291.319 192.707 300.744 202.243 300.744 213.972C300.744 225.702 291.29 235.238 279.661 235.238Z" fill="#0775D7"/>
</svg>
