<svg width="35" height="36" viewBox="0 0 35 36" fill="none" xmlns="http://www.w3.org/2000/svg">
<circle cx="17.1297" cy="18" r="16" transform="rotate(-4.20343 17.1297 18)" fill="#9B9B9B"/>
<circle cx="17.0373" cy="12.8501" r="4.85712" transform="rotate(-4.20343 17.0373 12.8501)" stroke="white" stroke-width="2" stroke-linecap="round" stroke-linejoin="round"/>
<path d="M28.0312 29.9008C27.9377 28.6286 27.5945 27.3872 27.0213 26.2476C26.448 25.1079 25.6559 24.0924 24.6902 23.2589C23.7244 22.4254 22.604 21.7902 21.3928 21.3898C20.1816 20.9893 18.9034 20.8313 17.6311 20.9248C16.3588 21.0183 15.1174 21.3615 13.9778 21.9347C12.8382 22.508 11.8226 23.3001 10.9891 24.2658C10.1556 25.2316 9.52049 26.352 9.12001 27.5632C8.71952 28.7744 8.56152 30.0527 8.65503 31.3249" stroke="white" stroke-width="2" stroke-linecap="round" stroke-linejoin="round"/>
</svg>
