<svg width="18" height="18" viewBox="0 0 18 18" fill="none" xmlns="http://www.w3.org/2000/svg">
<path d="M14.4041 12.7664C12.9778 12.7666 11.5712 12.4341 10.2959 11.7953C9.02072 11.1566 7.91205 10.2292 7.05805 9.08691C6.20405 7.9446 5.62827 6.61884 5.37647 5.21499C5.12466 3.81114 5.20377 2.36791 5.60751 1C4.41963 1.60813 3.39236 2.48849 2.60952 3.56924C1.82668 4.65 1.31045 5.90053 1.10295 7.21879C0.895457 8.53706 1.00257 9.8857 1.41556 11.1547C1.82855 12.4237 2.53572 13.577 3.47934 14.5207C4.42297 15.4643 5.57634 16.1714 6.84532 16.5844C8.1143 16.9974 9.46294 17.1045 10.7812 16.897C12.0995 16.6896 13.35 16.1733 14.4308 15.3905C15.5115 14.6076 16.3919 13.5804 17 12.3925C16.1568 12.6397 15.2827 12.7656 14.4041 12.7664Z" stroke="#686868" stroke-linejoin="round"/>
</svg>
