<svg width="264" height="77" viewBox="0 0 264 77" fill="none" xmlns="http://www.w3.org/2000/svg">
<path d="M100.12 41.72C100.12 43.2133 99.76 44.6133 99.04 45.92C98.3467 47.2267 97.24 48.28 95.72 49.08C94.2267 49.88 92.3333 50.28 90.04 50.28H85.36V61H79.76V33.08H90.04C92.2 33.08 94.04 33.4533 95.56 34.2C97.08 34.9467 98.2133 35.9733 98.96 37.28C99.7333 38.5867 100.12 40.0667 100.12 41.72ZM89.8 45.76C91.3467 45.76 92.4933 45.4133 93.24 44.72C93.9867 44 94.36 43 94.36 41.72C94.36 39 92.84 37.64 89.8 37.64H85.36V45.76H89.8ZM105.336 36.2C104.349 36.2 103.523 35.8933 102.856 35.28C102.216 34.64 101.896 33.8533 101.896 32.92C101.896 31.9867 102.216 31.2133 102.856 30.6C103.523 29.96 104.349 29.64 105.336 29.64C106.323 29.64 107.136 29.96 107.776 30.6C108.443 31.2133 108.776 31.9867 108.776 32.92C108.776 33.8533 108.443 34.64 107.776 35.28C107.136 35.8933 106.323 36.2 105.336 36.2ZM108.096 38.84V61H102.496V38.84H108.096ZM110.589 49.92C110.589 47.6267 111.055 45.6267 111.989 43.92C112.922 42.1867 114.215 40.8533 115.869 39.92C117.522 38.96 119.415 38.48 121.549 38.48C124.295 38.48 126.562 39.1733 128.349 40.56C130.162 41.92 131.375 43.84 131.989 46.32H125.949C125.629 45.36 125.082 44.6133 124.309 44.08C123.562 43.52 122.629 43.24 121.509 43.24C119.909 43.24 118.642 43.8267 117.709 45C116.775 46.1467 116.309 47.7867 116.309 49.92C116.309 52.0267 116.775 53.6667 117.709 54.84C118.642 55.9867 119.909 56.56 121.509 56.56C123.775 56.56 125.255 55.5467 125.949 53.52H131.989C131.375 55.92 130.162 57.8267 128.349 59.24C126.535 60.6533 124.269 61.36 121.549 61.36C119.415 61.36 117.522 60.8933 115.869 59.96C114.215 59 112.922 57.6667 111.989 55.96C111.055 54.2267 110.589 52.2133 110.589 49.92ZM164.931 33.08V61H159.331V42.84L151.851 61H147.611L140.091 42.84V61H134.491V33.08H140.851L149.731 53.84L158.611 33.08H164.931ZM190.068 38.84L176.348 71.48H170.388L175.188 60.44L166.308 38.84H172.588L178.308 54.32L184.108 38.84H190.068ZM207.327 46.68C208.9 46.9733 210.193 47.76 211.207 49.04C212.22 50.32 212.727 51.7867 212.727 53.44C212.727 54.9333 212.353 56.2533 211.607 57.4C210.887 58.52 209.833 59.4 208.447 60.04C207.06 60.68 205.42 61 203.527 61H191.487V33.08H203.007C204.9 33.08 206.527 33.3867 207.887 34C209.273 34.6133 210.313 35.4667 211.007 36.56C211.727 37.6533 212.087 38.8933 212.087 40.28C212.087 41.9067 211.647 43.2667 210.767 44.36C209.913 45.4533 208.767 46.2267 207.327 46.68ZM197.087 44.6H202.207C203.54 44.6 204.567 44.3067 205.287 43.72C206.007 43.1067 206.367 42.24 206.367 41.12C206.367 40 206.007 39.1333 205.287 38.52C204.567 37.9067 203.54 37.6 202.207 37.6H197.087V44.6ZM202.727 56.44C204.087 56.44 205.14 56.12 205.887 55.48C206.66 54.84 207.047 53.9333 207.047 52.76C207.047 51.56 206.647 50.6267 205.847 49.96C205.047 49.2667 203.967 48.92 202.607 48.92H197.087V56.44H202.727ZM236.51 38.84V61H230.87V58.2C230.15 59.16 229.203 59.92 228.03 60.48C226.883 61.0133 225.63 61.28 224.27 61.28C222.536 61.28 221.003 60.92 219.67 60.2C218.336 59.4533 217.283 58.3733 216.51 56.96C215.763 55.52 215.39 53.8133 215.39 51.84V38.84H220.99V51.04C220.99 52.8 221.43 54.16 222.31 55.12C223.19 56.0533 224.39 56.52 225.91 56.52C227.456 56.52 228.67 56.0533 229.55 55.12C230.43 54.16 230.87 52.8 230.87 51.04V38.84H236.51ZM248.915 61.36C247.102 61.36 245.475 61.04 244.035 60.4C242.595 59.7333 241.448 58.84 240.595 57.72C239.768 56.6 239.315 55.36 239.235 54H244.875C244.982 54.8533 245.395 55.56 246.115 56.12C246.862 56.68 247.782 56.96 248.875 56.96C249.942 56.96 250.768 56.7467 251.355 56.32C251.968 55.8933 252.275 55.3467 252.275 54.68C252.275 53.96 251.902 53.4267 251.155 53.08C250.435 52.7067 249.275 52.3067 247.675 51.88C246.022 51.48 244.662 51.0667 243.595 50.64C242.555 50.2133 241.648 49.56 240.875 48.68C240.128 47.8 239.755 46.6133 239.755 45.12C239.755 43.8933 240.102 42.7733 240.795 41.76C241.515 40.7467 242.528 39.9467 243.835 39.36C245.168 38.7733 246.728 38.48 248.515 38.48C251.155 38.48 253.262 39.1467 254.835 40.48C256.408 41.7867 257.275 43.56 257.435 45.8H252.075C251.995 44.92 251.622 44.2267 250.955 43.72C250.315 43.1867 249.448 42.92 248.355 42.92C247.342 42.92 246.555 43.1067 245.995 43.48C245.462 43.8533 245.195 44.3733 245.195 45.04C245.195 45.7867 245.568 46.36 246.315 46.76C247.062 47.1333 248.222 47.52 249.795 47.92C251.395 48.32 252.715 48.7333 253.755 49.16C254.795 49.5867 255.688 50.2533 256.435 51.16C257.208 52.04 257.608 53.2133 257.635 54.68C257.635 55.96 257.275 57.1067 256.555 58.12C255.862 59.1333 254.848 59.9333 253.515 60.52C252.208 61.08 250.675 61.36 248.915 61.36Z" fill="black"/>
<path d="M65.2336 17.401C65.1415 16.482 64.324 15.8037 63.4144 15.8967L63.0841 15.9295C62.2991 16.0116 61.6981 16.6352 61.6006 17.3901C59.4566 7.45603 52.9108 0 32.9107 0C13.165 0 6.52717 7.26456 4.30192 17.0126C4.08535 16.4328 3.56559 15.9952 2.91588 15.9295L2.58561 15.8967C1.67602 15.8037 0.858474 16.482 0.771847 17.401L0.00844172 25.0649C-0.0836001 25.9839 0.587764 26.81 1.49735 26.903L1.82762 26.9358C2.38529 26.9905 2.91046 26.7607 3.25156 26.3559C3.17576 28.5659 3.17576 30.8197 3.17576 33.0735C3.17576 49.6649 28.5089 77 32.9107 77C37.3124 77 62.6456 49.6649 62.6456 33.0735C62.6456 30.7212 62.6456 28.3799 62.5644 26.0824C62.8784 26.6459 63.501 27.0069 64.1778 26.9358L64.5081 26.903C65.4122 26.81 66.0836 25.9839 65.9916 25.0649L65.2336 17.401ZM22.5912 7.0731C22.5912 6.05563 23.4141 5.22414 24.4212 5.22414H41.5409C42.548 5.22414 43.3709 6.05563 43.3709 7.0731V7.43414C43.3709 8.45162 42.548 9.2831 41.5409 9.2831H24.4212C23.4141 9.2831 22.5912 8.45162 22.5912 7.43414V7.0731ZM11.0535 26.5857L12.6723 15.5958C12.8293 14.5127 13.7497 13.7141 14.8326 13.7141H51.1674C52.2503 13.7141 53.1653 14.5127 53.3277 15.5958L54.9465 26.5857C55.1415 27.9204 54.1182 29.1184 52.7863 29.1184H13.2137C11.8764 29.1184 10.8585 27.9204 11.0535 26.5857ZM13.609 43.9922C11.4325 43.9922 9.67283 42.2143 9.67283 40.0153C9.67283 37.8162 11.4325 36.0384 13.609 36.0384C15.7855 36.0384 17.5451 37.8217 17.5451 40.0153C17.5451 42.2089 15.7801 43.9922 13.609 43.9922ZM43.9232 43.3576C43.7012 43.5819 43.3926 43.7241 43.0515 43.7241H22.7157C22.0335 43.7241 21.4867 43.1662 21.4867 42.4769C21.4867 42.1378 21.622 41.8259 21.844 41.6017C22.066 41.3719 22.3746 41.2352 22.7157 41.2352H43.0515C43.7337 41.2352 44.2805 41.7931 44.2805 42.4769C44.2805 42.8215 44.1452 43.1334 43.9232 43.3576ZM43.9232 38.4781C43.7012 38.7024 43.3926 38.8392 43.0515 38.8392H22.7157C22.0335 38.8392 21.4867 38.2867 21.4867 37.5974C21.4867 37.2528 21.622 36.941 21.844 36.7167C22.066 36.4924 22.3746 36.3556 22.7157 36.3556H43.0515C43.7337 36.3556 44.2805 36.9081 44.2805 37.5974C44.2805 37.942 44.1452 38.2538 43.9232 38.4781ZM52.2124 43.9922C50.0358 43.9922 48.2762 42.2143 48.2762 40.0153C48.2762 37.8162 50.0358 36.0384 52.2124 36.0384C54.3889 36.0384 56.1485 37.8217 56.1485 40.0153C56.1485 42.2089 54.3835 43.9922 52.2124 43.9922Z" fill="#0775D7"/>
</svg>
